PathFileType	4	(X/Y/Z)	..\data\2014030\dynamic\2014030_C5_02.trc
DataRate	CameraRate	NumFrames	NumMarkers	Units	OrigDataRate	OrigDataStartFrame	OrigNumFrames
100.000000	100.000000	4	52	mm	100.000000	0	155
Frame#	Time	L_IAS			L_IPS			R_IPS			R_IAS			L_FTC			L_FLE			L_FME			L_FAX			L_TTC			L_FAL			L_TAM			L_FCC			L_FM1			L_FM2			L_FM5			R_FTC			R_FLE			R_FME			R_FAX			R_TTC			R_FAL			R_TAM			R_FCC			R_FM1			R_FM2			R_FM5			CV7			TV10			SXS			SJN			L_SIA			L_SRS			L_SAA			L_SAE			L_HLE			L_HME			L_UOA			L_RSP			L_UHE			L_HM2			L_HM5			R_SIA			R_SRS			R_SAA			R_SAE			R_HLE			R_HME			R_UOA			R_RSP			R_UHE			R_HM2			R_HM5			
		X1	Y1	Z1	X2	Y2	Z2	X3	Y3	Z3	X4	Y4	Z4	X5	Y5	Z5	X6	Y6	Z6	X7	Y7	Z7	X8	Y8	Z8	X9	Y9	Z9	X10	Y10	Z10	X11	Y11	Z11	X12	Y12	Z12	X13	Y13	Z13	X14	Y14	Z14	X15	Y15	Z15	X16	Y16	Z16	X17	Y17	Z17	X18	Y18	Z18	X19	Y19	Z19	X20	Y20	Z20	X21	Y21	Z21	X22	Y22	Z22	X23	Y23	Z23	X24	Y24	Z24	X25	Y25	Z25	X26	Y26	Z26	X27	Y27	Z27	X28	Y28	Z28	X29	Y29	Z29	X30	Y30	Z30	X31	Y31	Z31	X32	Y32	Z32	X33	Y33	Z33	X34	Y34	Z34	X35	Y35	Z35	X36	Y36	Z36	X37	Y37	Z37	X38	Y38	Z38	X39	Y39	Z39	X40	Y40	Z40	X41	Y41	Z41	X42	Y42	Z42	X43	Y43	Z43	X44	Y44	Z44	X45	Y45	Z45	X46	Y46	Z46	X47	Y47	Z47	X48	Y48	Z48	X49	Y49	Z49	X50	Y50	Z50	X51	Y51	Z51	X52	Y52	Z52	

1	0	-241.9263763427735	907.3809814453127	-364.4045104980469	-437.4927368164064	952.949157714844	-273.8618469238282	-425.4901123046876	948.2767333984377	-160.1215209960938	-218.8282623291016	910.192321777344	-107.6438751220703	-326.0109558105469	844.7281494140627	-410.6396789550782	-403.030975341797	447.8048400878907	-326.5771789550782	-418.108123779297	462.9647216796876	-208.0820617675782	-429.944549560547	389.9331970214845	-324.1591796875001	-385.1728820800782	383.5456237792969	-254.4783172607422	-560.5380249023439	80.1941604614258	-293.7827148437501	-559.3933715820314	92.76668548583986	-202.9186248779297	-622.5701293945314	46.92849731445313	-261.0752563476563	-439.0565795898439	10.89369869232178	-196.8475189208985	-423.1943359375001	27.75543975830079	-254.4636230468751	-459.7999877929689	10.95194053649903	-312.4638977050782	-300.0404052734376	826.801452636719	-47.21931076049805	-134.5044555664063	466.8359375000001	-104.9047393798828	-135.0964508056641	467.838104248047	-229.1544647216797	-120.0259170532227	410.5433654785157	-106.1193542480469	-63.63112640380861	429.6813049316407	-161.2303771972657	-9.944793701171877	86.1090545654297	-133.8252410888672	5.057158470153809	104.9485702514649	-221.6153717041016	-27.81487274169923	17.20825004577637	-185.1422882080078	138.1637573242188	96.44626617431643	-207.4844970703126	133.3402862548828	106.0471267700196	-150.4319305419922	107.9484100341797	61.96360778808595	-107.3642349243164	-349.0579833984376	1407.426635742188	-219.0498962402344	-426.1559448242189	1182.08984375	-244.1270751953126	-190.1432495117188	1092.64013671875	-239.4853515625001	-220.2900848388672	1312.328857421875	-235.6042785644532	-427.8229064941407	1215.093994140625	-338.5757751464844	-390.4474182128907	1345.425048828125	-341.9172058105469	-337.3883972167969	1346.939697265625	-407.7977294921876	-281.4659729003907	1358.131103515625	-419.5108337402345	-257.3395996093751	1054.288818359375	-524.1371459960939	-300.4624023437501	1029.010986328125	-465.0453186035157	-279.7233581542969	1009.463500976563	-503.8868713378907	-66.54438781738283	909.4841308593752	-444.1318664550782	-95.57066345214845	883.3634033203127	-505.3772277832032	3.876810312271119	856.4831542968752	-436.5858459472657	-63.2037696838379	820.7166137695315	-507.5521850585939	-432.5120239257814	1202.80712890625	-155.150375366211	-387.7989501953126	1323.070190429688	-126.2392120361328	-348.4654541015626	1323.760620117188	-70.60190582275392	-295.2795410156251	1325.622436523438	-46.4480209350586	-386.8809204101564	1021.167907714844	22.10066604614258	-425.0081787109376	1014.643615722656	-49.37769699096681	-427.9123535156251	1001.134399414063	-3.437638998031617	-377.2273254394532	775.6849365234377	-8.781905174255373	-415.0979309082032	790.2144165039065	59.35787963867189	-357.9816284179688	689.5026245117189	1.558266997337342	-420.8517456054689	718.7854614257814	77.28031158447267	
2	0.01	-229.0762786865235	906.064392089844	-364.6505737304688	-423.8146362304689	951.7598876953127	-272.5610656738282	-410.962127685547	946.719909667969	-158.8717651367188	-203.7168121337891	908.9714355468752	-107.8674621582032	-313.3600769042969	843.837585449219	-410.5190734863282	-393.5007934570314	447.3760681152345	-326.8521728515626	-408.105438232422	462.8610839843751	-208.2158813476563	-421.4649963378907	389.8540649414064	-324.3882446289063	-376.4083862304688	382.4921875000001	-254.9001922607422	-559.0643920898439	82.9240188598633	-294.2805175781251	-557.3492431640626	95.49491119384767	-203.3289031982422	-621.9464721679689	51.04408264160158	-261.3048095703126	-438.9980468750001	10.69317245483399	-196.9710235595704	-422.9126892089845	27.79675865173341	-254.5959625244141	-459.4988098144532	10.90425682067871	-312.5676574707032	-284.2879638671876	825.0804443359377	-47.24768066406251	-122.6643295288086	464.3254394531251	-105.7004013061524	-125.3868713378907	464.4818115234376	-230.3042449951172	-107.3461380004883	408.0553283691407	-107.0143966674805	-51.55873107910158	427.9866943359376	-162.8887786865235	8.414928436279299	85.31688690185548	-134.7566680908203	22.29654312133789	104.3057708740235	-222.8204345703126	-8.98156261444092	15.9745740890503	-185.6190643310547	155.9564514160157	97.3527755737305	-209.4291229248047	151.3577270507813	107.1474151611328	-152.3912506103516	126.8341140747071	62.98006820678712	-109.0225601196289	-335.4990234375001	1405.96435546875	-218.177474975586	-412.3938293457032	1180.619262695313	-243.1004486083985	-176.3437042236328	1091.29248046875	-239.3469238281251	-206.5858001708985	1311.033081054688	-235.1638488769532	-414.4389038085939	1213.63232421875	-337.5207824707032	-377.1420593261719	1344.018432617188	-340.9962463378907	-324.1936950683594	1345.48681640625	-407.006561279297	-268.2817382812501	1356.789184570313	-418.8263549804689	-242.6910552978516	1053.404296875	-524.0497436523439	-285.6561279296876	1027.621459960938	-465.019500732422	-264.6559143066407	1008.263000488281	-503.799285888672	-50.28272628784181	911.1654052734377	-443.6884765625001	-78.63008117675783	884.7639160156252	-505.1163940429689	20.97784614562989	859.2926025390627	-436.0178833007814	-45.35641860961915	822.4661865234377	-507.1456909179689	-418.511688232422	1201.169677734375	-154.23583984375	-373.9400024414063	1321.481079101563	-125.3984298706055	-334.5360412597657	1322.23681640625	-69.78313446044923	-281.3708496093751	1324.141235351563	-45.66933059692384	-374.4141235351563	1020.2373046875	22.73991394042969	-412.3931884765626	1013.734802246094	-48.82509613037111	-415.5445556640626	1000.622314453125	-2.843306064605713	-367.7471008300782	774.4533691406252	-6.619858264923097	-405.5237731933595	790.0274658203127	61.37831115722658	-350.1535644531251	688.1834106445314	4.340278148651124	-412.2891540527345	718.7727661132814	79.77248382568361	
3	0.02	-215.9596557617188	904.8450927734377	-364.8501586914063	-409.897186279297	950.7968750000002	-271.3633117675782	-396.321502685547	945.4771728515627	-157.7033843994141	-188.5547180175782	907.9158325195315	-107.9977111816407	-300.3300781250001	843.0299072265627	-410.3290100097657	-383.2576904296876	446.988494873047	-327.2992553710938	-397.1116027832032	462.5963134765626	-208.5294647216797	-412.2877807617189	389.8487548828126	-324.7976989746094	-366.8613586425782	381.3250122070313	-255.6378631591797	-557.2788085937501	86.06239318847658	-294.8730468750001	-554.7122192382814	98.6193771362305	-203.8783721923829	-620.9265747070314	55.81617355346681	-261.4794311523438	-439.0980834960939	10.49438571929932	-197.0996398925782	-422.7456970214845	27.73600959777833	-254.7343750000001	-459.3269042968751	10.80711078643799	-312.6000366210938	-268.4929199218751	823.6463012695315	-47.29826354980469	-110.2128372192383	462.4436645507814	-106.5659332275391	-114.3554611206055	462.0723266601564	-231.3921203613282	-94.52819824218751	406.086395263672	-107.9500045776367	-39.23101806640626	426.3920288085939	-164.427001953125	23.54026031494141	84.38314056396486	-135.8015289306641	36.67171096801759	103.2896804809571	-224.0878601074219	5.885556221008302	14.98661231994629	-186.2443237304688	170.6532592773438	96.51197052001956	-211.0405426025391	166.1923980712891	106.5759201049805	-154.0210723876953	141.9020080566407	62.6587257385254	-110.5161972045899	-321.7753601074219	1404.729370117188	-217.2069091796876	-398.4444885253907	1179.366943359375	-242.0350799560547	-162.3319702148438	1090.182983398438	-239.0969543457032	-192.7679595947266	1309.961059570313	-234.5720672607422	-400.8917846679689	1212.377197265625	-336.3901977539063	-363.6781311035157	1342.831420898438	-339.9825134277344	-310.8458557128907	1344.249877929688	-406.1227111816407	-254.9451904296876	1355.637817382813	-418.0827941894532	-228.3662414550782	1052.64013671875	-523.8152465820314	-271.2033081054688	1026.4541015625	-464.838348388672	-249.997055053711	1007.24267578125	-503.5549316406251	-34.64585113525391	912.5346679687502	-443.2520751953126	-62.4133987426758	885.9351806640627	-504.8448181152345	37.32621002197266	861.6135864257815	-435.5095825195314	-28.38669395446778	823.9114990234377	-506.7648315429689	-404.3758850097657	1199.763793945313	-153.2571563720703	-359.9440002441407	1320.111694335938	-124.4614334106446	-320.4752502441407	1320.901611328125	-68.86862182617189	-267.3302307128907	1322.836059570313	-44.80165481567384	-361.5943908691407	1019.404479980469	23.426513671875	-399.4262695312501	1012.903869628906	-48.21422958374025	-402.7875366210939	1000.154663085938	-2.205079793930054	-357.4808654785157	773.3397216796877	-4.526706218719483	-395.2681884765626	789.8889160156252	63.28533172607423	-341.4708251953126	687.0568847656251	6.995582580566408	-403.0092163085939	718.8442993164064	82.09061431884767	
4	0.03	-202.5456848144532	903.7512207031252	-364.9651489257813	-395.7500610351564	950.0726318359377	-270.3008422851563	-381.5885314941407	944.5925903320315	-156.6439056396485	-173.3785247802735	907.0692138671877	-108.0093383789063	-286.8969421386719	842.2930297851565	-410.0417785644532	-372.2179870605469	446.6414489746095	-327.9371337890626	-384.941864013672	462.106658935547	-209.0588836669922	-402.3248291015626	389.9337463378907	-325.4146728515626	-356.4259643554688	380.0216064453126	-256.7619018554688	-555.0634765625001	89.65698242187501	-295.5556030273438	-551.3236694335939	102.1451797485352	-204.5837860107422	-619.3372192382814	61.33512496948244	-261.5748901367188	-439.3878479003907	10.35163402557373	-197.224105834961	-422.7409667968751	27.55054092407227	-254.863510131836	-459.3431091308595	10.6775074005127	-312.5172119140626	-252.7853698730469	822.5723876953127	-47.33422088623048	-97.14693450927737	461.1985168457032	-107.461784362793	-102.0071792602539	460.6451110839845	-232.3663482666016	-81.52715301513673	404.6387634277345	-108.8963165283203	-26.62023162841798	424.9409484863282	-165.817855834961	35.68173217773438	83.25168609619142	-136.9508361816407	48.40069580078126	101.8732070922852	-225.4060516357422	17.04664993286133	14.17820739746094	-186.999267578125	182.508056640625	93.95682525634767	-212.3833160400391	178.1259002685547	104.3424682617188	-155.3783111572266	153.4671783447266	60.9734344482422	-111.873779296875	-307.8804016113282	1403.76220703125	-216.1516876220704	-384.3171691894532	1178.37353515625	-240.9524383544922	-148.1136474609375	1089.352294921875	-238.7346649169922	-178.8329010009766	1309.151000976563	-233.8398132324219	-387.1801147460939	1211.379272460938	-335.2169799804688	-350.0448608398438	1341.911010742188	-338.8971557617188	-297.3259277343751	1343.27978515625	-405.160125732422	-241.4359893798829	1354.721435546875	-417.2809143066407	-214.3766632080079	1052.026123046875	-523.4249877929689	-257.1106262207032	1025.547119140625	-464.4826965332032	-235.7637939453126	1006.434143066406	-503.1414489746095	-19.6362361907959	913.584655761719	-442.8402099609376	-46.96758651733399	886.844177246094	-504.547576904297	52.91597747802736	863.424499511719	-435.0951538085939	-12.34338569641114	825.0198364257815	-506.4043884277345	-390.1164550781251	1198.636596679688	-152.2319793701172	-345.8117675781251	1319.005126953125	-123.4422378540039	-306.2865600585938	1319.79833984375	-67.87339019775392	-253.1612548828126	1321.749145507813	-43.85865020751954	-348.4253540039063	1018.711486816406	24.1527442932129	-386.0973510742189	1012.191650390625	-47.55817031860352	-389.6375732421876	999.764587402344	-1.530356645584107	-346.4061279296876	772.370544433594	-2.521384477615357	-384.2940368652345	789.8184814453127	65.0755081176758	-331.8963317871094	686.1373291015626	9.484996795654299	-392.9597167968751	719.0080566406251	84.22900390625001	
